HIERARCHY
ROOT hip
{
	OFFSET 0.000000 0.000000 0.000000 
	CHANNELS 6 Xposition Yposition Zposition Xrotation Zrotation Yrotation
	JOINT abdomen
	{
		OFFSET 0.000000 3.402643 0.000000 
		CHANNELS 3 Xrotation Zrotation Yrotation
		JOINT chest
		{
			OFFSET 0.000000 8.438565 -0.680529 
			CHANNELS 3 Xrotation Zrotation Yrotation
			JOINT neck
			{
				OFFSET 0.000000 10.207942 -0.272212 
				CHANNELS 3 Xrotation Zrotation Yrotation
				JOINT head
				{
					OFFSET 0.000000 3.130431 0.000000 
					CHANNELS 3 Xrotation Zrotation Yrotation
					End Site
					{
						OFFSET 0.000000 3.130435 0.000000 
					}
				}
			}
			JOINT lCollar
			{
				OFFSET 3.470700 6.669187 -0.816635 
				CHANNELS 3 Yrotation Zrotation Xrotation
				JOINT lShldr
				{
					OFFSET 3.198488 0.000000 0.000000 
					CHANNELS 3 Zrotation Yrotation Xrotation
					JOINT lForeArm
					{
						OFFSET 10.139888 0.000000 0.000000 
						CHANNELS 3 Yrotation Zrotation Xrotation
						JOINT lHand
						{
							OFFSET 8.370511 0.000000 0.000000 
							CHANNELS 3 Zrotation Yrotation Xrotation
							End Site
							{
								OFFSET 4.083176 0.000000 0.000000 
							}
						}
					}
				}
			}
			JOINT rCollar
			{
				OFFSET -3.470700 6.669187 -0.816635 
				CHANNELS 3 Yrotation Zrotation Xrotation
				JOINT rShldr
				{
					OFFSET -3.198488 0.000000 0.000000 
					CHANNELS 3 Zrotation Yrotation Xrotation
					JOINT rForeArm
					{
						OFFSET -10.139888 0.000000 0.000000 
						CHANNELS 3 Yrotation Zrotation Xrotation
						JOINT rHand
						{
							OFFSET -8.370511 0.000000 0.000000 
							CHANNELS 3 Zrotation Yrotation Xrotation
							End Site
							{
								OFFSET -4.083176 0.000000 0.000000 
							}
						}
					}
				}
			}
		}
	}
	JOINT lThigh
	{
		OFFSET 5.308129 -1.633274 1.361059 
		CHANNELS 3 Xrotation Zrotation Yrotation
		JOINT lShin
		{
			OFFSET -2.041588 -20.007561 0.000000 
			CHANNELS 3 Xrotation Zrotation Yrotation
			JOINT lFoot
			{
				OFFSET 0.000000 -19.190928 -1.224953 
				CHANNELS 3 Xrotation Yrotation Zrotation
				End Site
				{
					OFFSET 0.000000 -2.449906 4.627600 
				}
			}
		}
	}
	JOINT rThigh
	{
		OFFSET -5.308129 -1.633274 1.361059 
		CHANNELS 3 Xrotation Zrotation Yrotation
		JOINT rShin
		{
			OFFSET 2.041588 -20.007561 0.000000 
			CHANNELS 3 Xrotation Zrotation Yrotation
			JOINT rFoot
			{
				OFFSET 0.000000 -19.190928 -1.224953 
				CHANNELS 3 Xrotation Yrotation Zrotation
				End Site
				{
					OFFSET 0.000000 -2.449906 4.627600 
				}
			}
		}
	}
}
MOTION
Frames: 18
Frame Time: 0.033333
-23.327497 48.468811 -29.954185 -0.744148 0.390230 2.578198 0.000000 0.000000 0.000000 -0.344236 -2.987921 -0.890009 4.775383 -3.058879 -4.019408 10.272896 1.062221 -3.711567 -4.175767 -8.532314 -0.038528 -66.835533 20.641457 -0.804443 -45.288933 -3.525923 9.303244 -2.175651 5.376348 -3.568981 6.427705 10.947161 -0.268386 62.275650 -13.598039 -4.558678 40.213959 9.331418 13.365474 -19.144447 -4.378245 -3.353534 -7.140905 2.769631 5.493495 24.689833 -5.539809 11.334869 -16.835493 0.062763 -0.330113 -8.903488 -7.585057 -5.681012 25.232653 1.552201 -15.249781 -13.037903 -0.970797 8.253877 
-23.291950 48.518574 -30.045898 -0.603609 -0.156050 2.900380 0.000000 0.000000 0.000000 0.251270 -2.636467 -0.791975 4.947313 -2.989916 -4.224713 8.266118 0.896158 -4.082447 -3.789162 -7.879613 0.570517 -70.872505 26.823706 0.693576 -44.329266 -4.251813 10.276216 -3.422164 6.154027 -3.614274 6.232787 11.319946 0.285622 69.387192 -19.320478 -9.251439 38.677841 8.387788 14.431194 -18.542171 -4.311707 -3.368925 -7.464197 3.082387 5.380949 24.622047 -5.232918 11.296516 -16.630373 0.054586 -0.334535 -8.051242 -7.552422 -6.012137 24.095545 2.097786 -11.898410 -13.300819 -0.898876 7.488023 
-23.322767 48.609272 -30.072412 -1.084212 -0.702026 3.203363 0.000000 0.000000 0.000000 1.294620 -2.245824 -0.889520 5.344421 -3.077568 -4.225238 7.062502 0.895980 -4.238679 -3.268422 -7.554009 1.593828 -73.238419 32.378799 2.821387 -43.428905 -5.260033 12.053936 -4.531894 7.369545 -3.718428 5.896083 11.630896 1.228754 75.012733 -23.863264 -13.483217 36.380955 7.716707 12.021520 -15.814779 -4.818220 -3.356396 -6.735753 3.816630 5.835449 24.142683 -5.354083 10.487339 -16.415998 0.009138 -0.061234 -6.492173 -7.526364 -6.509090 22.990898 2.624944 -8.659361 -13.299129 -0.802555 6.828023 
-23.387743 48.693836 -30.058632 -1.175617 -1.423430 3.291939 0.000000 0.000000 0.000000 1.927311 -1.796576 -1.045633 5.413264 -2.873334 -4.146180 6.983897 0.399423 -3.984414 -3.026437 -6.966255 2.201215 -75.120239 37.400620 4.640339 -42.432289 -6.094316 15.040949 -7.224214 8.410364 -3.891236 5.563125 11.990437 1.766878 77.746872 -27.963676 -14.794496 33.705048 7.445818 13.160345 -11.188329 -4.867254 -3.367759 -6.409562 4.769378 6.401390 23.841410 -5.530685 9.691489 -16.318258 -0.041370 0.164906 -6.804314 -7.467447 -6.940983 24.640043 3.025086 -7.322588 -12.436722 -0.776286 6.859807 
-23.415806 48.746288 -30.000776 -0.651909 -1.500217 4.005136 0.000000 0.000000 0.000000 1.851080 -1.805828 -1.719743 5.495888 -2.998843 -4.430020 6.913618 0.613965 -3.681847 -3.677747 -6.790268 2.119990 -75.982880 42.100204 7.202597 -41.543465 -7.033529 20.030924 -9.604445 8.693327 -4.024914 4.573612 11.187855 1.754282 78.737427 -31.924194 -12.616450 30.796089 7.730302 16.729338 -9.353356 -4.219836 -3.454596 -6.716238 4.773235 6.145446 23.335577 -5.414196 9.244177 -16.074045 -0.043125 0.208034 -8.609141 -8.451707 -7.975889 28.205667 3.327966 -8.515139 -11.130776 -0.794193 7.891544 
-23.473692 48.821831 -29.891832 -0.462210 -1.274504 4.962096 0.000000 0.000000 0.000000 1.953525 -1.990231 -2.540921 5.853249 -3.220537 -4.920243 6.823622 0.867621 -3.389022 -4.301622 -6.944107 2.167846 -75.580818 45.731995 10.336307 -40.893562 -8.045235 24.607807 -11.159572 8.204658 -4.040148 3.290146 9.752748 1.918353 78.635483 -34.780159 -8.510299 27.469978 8.827871 18.368813 -11.071137 -4.998488 -3.369848 -6.415920 4.521517 5.831396 22.356728 -5.294496 8.808242 -15.556377 -0.019246 0.220849 -9.265947 -9.577659 -9.299179 29.997122 3.504825 -11.612123 -9.540587 -0.800895 9.387372 
-23.589512 48.878014 -29.792107 -0.416041 -1.371443 5.128285 0.000000 0.000000 0.000000 2.135623 -1.892168 -2.862992 6.133154 -3.220819 -4.861742 6.475160 0.906919 -3.047111 -4.291623 -6.918626 2.344178 -74.687263 48.127335 13.058772 -40.573669 -8.821148 28.224726 -12.060708 7.477104 -3.993910 2.704047 8.815920 2.121598 77.894279 -37.223881 -4.627825 25.298038 9.941205 20.388872 -13.169865 -4.898134 -3.357506 -6.122285 4.745394 5.855008 21.842234 -5.248158 8.550830 -15.341711 -0.018411 0.133119 -9.655188 -10.024767 -9.960839 30.370073 3.520569 -14.775248 -7.907167 -0.772520 10.602990 
-23.715317 48.891079 -29.678854 -0.297977 -1.615715 4.669688 0.000000 0.000000 0.000000 2.224316 -1.629094 -2.667159 6.190276 -3.144931 -4.420796 6.264865 1.248399 -2.900978 -4.024762 -6.691045 2.451368 -72.982811 49.042019 15.943106 -40.145912 -9.772358 30.102108 -12.215169 6.766558 -3.916562 2.716864 8.285109 2.235925 77.530312 -39.100475 -2.478258 23.330107 10.490895 23.255571 -14.145779 -4.205740 -3.425484 -6.149375 5.045833 5.908243 21.910645 -5.078082 8.789238 -15.468537 0.038991 -0.221088 -10.213051 -10.251278 -10.218374 29.901318 3.603276 -16.563002 -6.626467 -0.667254 10.985967 
-23.880880 48.895714 -29.567730 -0.089387 -1.860108 4.250242 0.000000 0.000000 0.000000 2.255932 -1.375703 -2.442343 6.182504 -2.883286 -4.087662 5.938779 1.355764 -2.832624 -3.953641 -6.426990 2.490299 -71.215363 48.915405 17.639933 -39.902168 -10.328597 30.259609 -12.276938 6.336926 -3.854975 2.927879 8.246614 2.275510 77.176468 -40.416939 -1.842334 21.660723 10.721447 24.528685 -14.163467 -3.663744 -3.472518 -6.322368 5.345624 5.876217 22.053860 -4.856180 9.410204 -15.583724 0.110303 -0.700091 -10.778247 -10.376752 -10.093464 28.282776 3.863166 -16.661232 -5.726980 -0.528773 10.380058 
-24.081392 48.896355 -29.425457 0.030782 -2.045651 4.055027 0.000000 0.000000 0.000000 2.390256 -1.122084 -2.373548 6.050202 -2.591343 -3.998438 5.710519 1.258290 -2.774055 -4.031950 -6.079695 2.635259 -69.770897 47.824871 17.909292 -39.975037 -10.240337 30.272552 -12.210832 6.523360 -3.885493 2.990093 8.461116 2.393927 76.675438 -41.163654 -2.458548 21.232782 10.652718 23.702534 -13.548471 -4.079875 -3.430789 -6.393629 5.651222 5.871385 22.232018 -4.609110 9.829693 -15.735752 0.182232 -1.190073 -10.771290 -10.400084 -9.662662 25.174999 4.189315 -15.615849 -4.954432 -0.442460 9.290294 
-24.339788 48.899780 -29.238844 0.038570 -2.241282 3.752856 0.000000 0.000000 0.000000 2.601949 -0.848945 -2.265955 5.810120 -2.435788 -3.890257 5.781312 1.394814 -2.803329 -3.909091 -5.747588 2.848814 -68.266922 45.461700 17.472916 -40.129322 -9.819317 30.101143 -11.739313 6.977206 -3.916680 2.927078 8.509965 2.611964 76.300385 -40.836216 -3.429238 21.411846 10.374163 22.749758 -13.715758 -5.074502 -3.324814 -6.197593 6.196769 6.109402 22.324558 -4.532981 10.010643 -15.895027 0.256745 -1.701094 -9.684751 -9.996124 -8.823853 19.518894 4.237097 -14.719447 -3.559465 -0.256021 8.104313 
-24.651461 48.879841 -29.055508 0.249764 -2.241675 3.596344 0.000000 0.000000 0.000000 2.628136 -0.741561 -2.353824 5.620733 -2.338165 -3.958554 5.787254 1.472845 -2.803565 -4.036336 -5.883209 2.878400 -66.662773 42.602306 16.128716 -40.750591 -8.920066 30.065233 -11.124984 7.632306 -3.967305 2.781254 8.368679 2.650912 75.725632 -39.958153 -3.905639 22.621161 10.176405 21.637983 -14.353800 -5.320121 -3.294412 -6.230205 6.581570 6.261941 22.534294 -4.456668 9.871798 -16.101135 0.326494 -2.193208 -9.284045 -9.751612 -7.737453 14.374174 4.023221 -14.014901 -1.654445 -0.118789 6.830867 
-24.980518 48.818562 -28.905518 0.912966 -2.027573 3.449251 0.000000 0.000000 0.000000 2.338867 -0.770727 -2.539358 5.244936 -2.308437 -4.134582 5.738101 1.316869 -2.725236 -4.398240 -6.307531 2.585599 -64.167000 38.674725 15.642224 -41.499527 -8.580792 28.619892 -9.592433 8.686021 -4.012380 2.632738 8.191188 2.374027 74.773170 -38.569920 -3.695849 24.821609 10.082915 20.323824 -14.964057 -5.682425 -3.248654 -6.860929 6.752628 6.181047 22.929808 -4.454855 9.995313 -16.381914 0.402345 -2.738037 -11.830685 -9.916492 -6.313957 13.736274 3.542902 -12.719835 -0.089878 -0.025680 5.338956 
-25.336275 48.730122 -28.702175 1.649745 -1.706690 2.970049 0.000000 0.000000 0.000000 1.922389 -0.829225 -2.597949 4.651550 -2.357225 -4.105315 5.853931 1.209721 -2.568817 -4.725858 -6.842767 2.166563 -61.285458 33.807323 15.538267 -41.981224 -8.579114 26.860939 -7.225590 9.377251 -3.965435 2.773427 8.350793 1.961396 73.260933 -36.587109 -2.671366 27.554949 10.085341 19.756943 -15.703891 -6.452951 -3.127064 -7.499985 6.933553 6.168088 23.471094 -4.505385 10.273232 -16.804049 0.516243 -3.396182 -13.070192 -9.955632 -5.026043 10.573995 3.016367 -11.220813 3.230769 0.134704 5.574906 
-25.728218 48.649052 -28.417999 2.091479 -1.346452 2.422354 0.000000 0.000000 0.000000 1.592998 -0.897535 -2.568809 4.246456 -2.347768 -4.007341 5.856836 1.190299 -2.471184 -5.298455 -7.223985 1.842715 -58.973637 28.687361 14.269869 -42.218086 -8.102608 26.154938 -5.050267 9.451689 -3.845539 3.196234 8.863468 1.636660 71.361832 -33.980183 -0.949807 30.324118 10.244575 19.443254 -16.971981 -7.621655 -2.935271 -7.596618 7.156983 6.286307 23.814758 -4.555053 10.605668 -17.219551 0.631076 -4.132220 -12.626672 -9.775211 -4.318811 5.553403 2.927195 -9.701053 6.878138 0.381893 6.102351 
-26.176277 48.558289 -28.069885 2.486743 -0.966241 1.943577 0.000000 0.000000 0.000000 1.173670 -0.965933 -2.422354 3.725400 -2.367586 -3.890254 6.173132 1.278012 -2.568809 -6.094793 -7.297781 1.389815 -56.949608 23.161348 12.472372 -42.112858 -7.537212 25.484034 -3.305678 9.073905 -3.745550 3.728510 9.386818 1.214300 69.331032 -30.731449 1.240312 32.955509 10.473359 19.404236 -16.934174 -7.737510 -2.922596 -7.513820 7.531941 6.628595 24.094334 -4.758848 10.541755 -17.663216 0.753545 -4.810271 -14.750755 -9.615452 -3.863312 7.138035 3.114787 -9.013743 6.722170 0.301891 5.263831 
-26.666304 48.408203 -27.628101 2.903208 -0.244042 1.630845 0.000000 0.000000 0.000000 0.579084 -1.258703 -2.354235 3.065630 -2.455387 -3.851231 6.794496 1.141430 -2.568822 -6.895374 -7.251473 0.772027 -55.197025 17.446352 10.398467 -42.124210 -6.927026 24.262445 -2.018093 9.024019 -3.682667 4.151695 9.684499 0.630863 67.186020 -26.889448 3.774838 35.418388 10.711204 19.870434 -15.973189 -7.771700 -2.956782 -7.528330 7.635476 6.776494 24.555351 -4.876873 10.615558 -18.201212 0.922511 -5.708170 -18.032225 -9.958043 -3.714561 12.909193 3.183249 -10.093946 3.855137 0.155952 4.899859 
-27.216938 48.321602 -27.055897 2.502726 0.136692 1.142598 0.000000 0.000000 0.000000 0.410398 -1.229490 -2.285887 2.848632 -2.446375 -3.587383 7.178571 0.907398 -2.412271 -7.386780 -7.080185 0.605445 -53.893108 11.359620 7.805911 -41.568848 -6.198456 22.982292 -1.012171 9.007557 -3.620162 4.560217 10.171958 0.444950 64.773872 -21.915117 6.910003 36.798008 10.983541 21.609735 -16.791128 -9.063231 -2.750339 -6.191216 8.017036 7.123355 24.348507 -4.710301 10.666446 -18.517391 1.112219 -6.781922 -19.148031 -9.881662 -3.956851 16.951088 3.417087 -11.093466 1.311204 0.037995 4.443768 
